<svg height="512pt" viewBox="0 0 512 512.00142" width="512pt" xmlns="http://www.w3.org/2000/svg"><path d="m392.445312 246.757812-127.28125-127.28125c-17.394531-17.394531-46.03125-17.605468-63.640624 0l-162.066407 162.070313c-52.609375 52.609375-52.609375 138.308594 0 190.917969 52.820313 52.820312 138.308594 52.609375 190.917969 0l162.070312-162.066406c17.605469-17.609376 17.605469-46.035157 0-63.640626zm0 0" fill="#575f64"/><path d="m392.445312 310.398438-162.070312 162.066406c-52.609375 52.609375-138.097656 52.820312-190.917969 0l289.347657-289.347656 63.640624 63.640624c17.605469 17.605469 17.605469 46.03125 0 63.640626zm0 0" fill="#32393f"/><path d="m496.933594 180.105469c-8.0625 0-14.851563-6.789063-14.851563-14.851563 0-37.335937-15.0625-71.066406-39.667969-95.671875-24.394531-24.394531-58.125-39.457031-95.457031-39.457031-8.0625 0-14.851562-6.789062-15.0625-15.0625.210938-8.273438 7-15.0625 15.0625-15.0625 45.605469-.210938 86.972657 18.667969 116.671875 48.367188 29.910156 29.910156 48.578125 71.066406 48.367188 116.675781.210937 8.269531-6.578125 15.058593-15.0625 15.0625zm0 0" fill="#c3ea21"/><path d="m437.113281 180.101562c-8.273437-.210937-14.851562-6.785156-15.0625-15.058593 0-20.792969-8.273437-39.671875-21.847656-53.246094-13.578125-13.578125-32.457031-21.851563-53.035156-21.636719-8.273438-.214844-15.0625-7.003906-15.0625-15.0625 0-8.484375 6.578125-15.058594 15.0625-15.0625 28.851562 0 54.941406 11.667969 74.035156 30.757813 19.089844 19.09375 30.96875 45.398437 30.96875 74.246093-.210937 8.277344-6.789063 14.851563-15.058594 15.0625zm0 0" fill="#c3ea21"/><path d="m377.078125 179.890625c-8.273437.214844-15.0625-6.574219-14.847656-14.847656-.210938-4.03125-1.910157-7.851563-4.667969-10.609375-2.757812-2.757813-6.574219-4.453125-10.394531-4.453125-8.484375 0-15.058594-6.574219-15.058594-15.0625 0-8.058594 6.785156-14.847657 14.847656-14.847657 12.515625.210938 23.757813 5.089844 31.820313 13.152344 8.273437 8.269532 13.152344 19.515625 13.152344 31.816406.210937 8.277344-6.578126 15.066407-14.851563 14.851563zm0 0" fill="#c3ea21"/><path d="m159.167969 268.035156c-5.855469-5.859375-15.355469-5.859375-21.210938 0-5.859375 5.855469-5.859375 15.355469 0 21.210938 5.855469 5.859375 15.355469 5.859375 21.210938 0 5.859375-5.855469 5.859375-15.355469 0-21.210938zm0 0" fill="#64e1dc"/><path d="m201.527344 331.609375c-5.941406 5.9375-15.277344 5.9375-21.214844 0-5.726562-5.726563-5.9375-15.273437 0-21.210937 5.941406-5.941407 15.484375-5.730469 21.214844 0 5.9375 5.9375 5.9375 15.269531 0 21.210937zm0 0" fill="#64e1dc"/><path d="m244.019531 352.886719c-5.855469-5.859375-15.355469-5.859375-21.210937 0-5.859375 5.859375-5.859375 15.355469 0 21.214843 5.855468 5.855469 15.355468 5.855469 21.210937 0 5.859375-5.859374 5.859375-15.355468 0-21.214843zm0 0" fill="#00c8c8"/><path d="m116.742188 310.460938c-5.859376-5.859376-15.355469-5.859376-21.210938 0-5.859375 5.859374-5.859375 15.355468 0 21.214843 5.855469 5.855469 15.351562 5.855469 21.210938 0 5.859374-5.859375 5.859374-15.355469 0-21.214843zm0 0" fill="#64e1dc"/><path d="m159.097656 374.035156c-5.9375 5.941406-15.273437 5.941406-21.210937 0-5.730469-5.726562-5.941407-15.273437 0-21.210937 5.9375-5.941407 15.484375-5.730469 21.210937 0 5.941406 5.9375 5.941406 15.273437 0 21.210937zm0 0" fill="#64e1dc"/><path d="m201.59375 395.3125c-5.859375-5.855469-15.355469-5.855469-21.214844 0-5.855468 5.859375-5.855468 15.355469 0 21.214844 5.859375 5.855468 15.355469 5.855468 21.214844 0 5.859375-5.859375 5.859375-15.355469 0-21.214844zm0 0" fill="#00c8c8"/><path d="m116.671875 416.460938c-5.9375 5.941406-15.273437 5.941406-21.210937 0-5.730469-5.726563-5.941407-15.273438 0-21.210938 5.9375-5.941406 15.484374-5.726562 21.210937 0 5.941406 5.9375 5.941406 15.273438 0 21.210938zm0 0" fill="#64e1dc"/><path d="m286.378906 225.542969c-16.972656-16.96875-46.667968-16.972657-63.640625 0-17.605469 17.605469-17.394531 46.246093 0 63.640625 17.605469 17.605468 46.03125 17.605468 63.640625 0 17.605469-17.609375 17.605469-46.03125 0-63.640625zm0 0" fill="#64e1dc"/><g fill="#00c8c8"><path d="m116.671875 416.460938c-5.9375 5.941406-15.273437 5.941406-21.210937 0l21.210937-21.210938c5.941406 5.9375 5.941406 15.273438 0 21.210938zm0 0"/><path d="m159.097656 374.035156c-5.9375 5.941406-15.273437 5.941406-21.210937 0l21.210937-21.210937c5.941406 5.9375 5.941406 15.273437 0 21.210937zm0 0"/><path d="m201.527344 331.609375c-5.941406 5.9375-15.277344 5.9375-21.214844 0l21.214844-21.210937c5.9375 5.9375 5.9375 15.269531 0 21.210937zm0 0"/><path d="m286.378906 289.183594c-17.609375 17.605468-46.035156 17.605468-63.640625 0l63.640625-63.640625c17.605469 17.609375 17.605469 46.03125 0 63.640625zm0 0"/></g><path d="m362.230469 165.042969c-.210938-4.03125-1.910157-7.851563-4.667969-10.609375l21.214844-21.210938c8.273437 8.273438 13.152344 19.515625 13.152344 31.820313.210937 8.273437-6.578126 15.0625-14.851563 14.847656-8.273437.214844-15.0625-6.574219-14.847656-14.847656zm0 0" fill="#9cdd05"/><path d="m452.171875 165.042969c-.210937 8.273437-6.785156 14.847656-15.058594 15.058593-8.273437-.210937-14.851562-6.785156-15.0625-15.058593 0-20.792969-8.273437-39.671875-21.847656-53.246094l21-21c19.089844 19.089844 30.96875 45.394531 30.96875 74.246094zm0 0" fill="#9cdd05"/><path d="m496.933594 180.105469c-8.0625 0-14.851563-6.789063-14.851563-14.851563 0-37.335937-15.0625-71.066406-39.667969-95.671875l21.214844-21.214843c29.910156 29.910156 48.578125 71.066406 48.367188 116.675781.210937 8.269531-6.578125 15.058593-15.0625 15.0625zm0 0" fill="#9cdd05"/></svg>